<svg xmlns="http://www.w3.org/2000/svg" width="27.691" height="26.523" viewBox="0 0 27.691 26.523">
  <g id="Icon_feather-shopping-cart" data-name="Icon feather-shopping-cart" transform="translate(1 1)">
    <path id="Path_11" data-name="Path 11" d="M14.336,31.168A1.168,1.168,0,1,1,13.168,30,1.168,1.168,0,0,1,14.336,31.168Z" transform="translate(-3.826 -7.812)" fill="none" stroke="#fff" stroke-linecap="round" stroke-linejoin="round" stroke-width="2"/>
    <path id="Path_12" data-name="Path 12" d="M30.836,31.168A1.168,1.168,0,1,1,29.668,30,1.168,1.168,0,0,1,30.836,31.168Z" transform="translate(-7.48 -7.812)" fill="none" stroke="#fff" stroke-linecap="round" stroke-linejoin="round" stroke-width="2"/>
    <path id="Path_13" data-name="Path 13" d="M1.5,1.5H6.171L9.3,17.137a2.336,2.336,0,0,0,2.336,1.88H22.987a2.336,2.336,0,0,0,2.336-1.88l1.868-9.8H7.339" transform="translate(-1.5 -1.5)" fill="none" stroke="#fff" stroke-linecap="round" stroke-linejoin="round" stroke-width="2"/>
  </g>
</svg>
