<svg xmlns="http://www.w3.org/2000/svg" width="14.81" height="14.837" viewBox="0 0 14.81 14.837">
  <path id="Icon_feather-phone-call" data-name="Icon feather-phone-call" d="M11.689,4.134a3.293,3.293,0,0,1,2.6,2.6M11.689,1.5a5.927,5.927,0,0,1,5.236,5.229m-.659,5.256v1.976a1.317,1.317,0,0,1-1.436,1.317,13.034,13.034,0,0,1-5.684-2.022A12.843,12.843,0,0,1,5.2,9.3a13.034,13.034,0,0,1-2.022-5.71A1.317,1.317,0,0,1,4.484,2.159H6.46A1.317,1.317,0,0,1,7.777,3.291a8.456,8.456,0,0,0,.461,1.851,1.317,1.317,0,0,1-.3,1.39l-.836.836a10.538,10.538,0,0,0,3.952,3.952l.836-.836a1.317,1.317,0,0,1,1.39-.3,8.456,8.456,0,0,0,1.851.461A1.317,1.317,0,0,1,16.266,11.985Z" transform="translate(-2.667 -0.948)" fill="none" stroke="#a0a0a0" stroke-linecap="round" stroke-linejoin="round" stroke-width="1"/>
</svg>
